<svg width="88" height="113" viewBox="0 0 88 113" fill="none" xmlns="http://www.w3.org/2000/svg">
<path d="M46.247 53.516L34.446 41.61C34.25 41.415 34.017 41.261 33.761 41.156C33.504 41.051 33.23 40.998 32.953 41C32.401 41.002 31.872 41.221 31.481 41.61L1.612 71.374C1.22 71.768 1 72.301 1 72.857C1 73.412 1.22 73.946 1.612 74.34L13.517 86.245C13.714 86.44 13.947 86.594 14.203 86.699C14.459 86.804 14.734 86.857 15.011 86.855C15.562 86.853 16.091 86.634 16.483 86.245L22.436 80.292L40.294 62.434L46.247 56.481C46.639 56.087 46.859 55.554 46.859 54.998C46.859 54.443 46.639 53.91 46.247 53.516ZM38.801 57.975L37.307 56.481C36.913 56.09 36.38 55.87 35.824 55.87C35.269 55.87 34.735 56.09 34.341 56.481C34.144 56.677 33.988 56.91 33.881 57.166C33.774 57.422 33.719 57.697 33.719 57.975C33.719 58.253 33.774 58.527 33.881 58.784C33.988 59.04 34.144 59.273 34.341 59.468L35.835 60.962L32.848 63.928L28.389 59.468C27.986 59.124 27.469 58.944 26.939 58.964C26.41 58.985 25.908 59.204 25.533 59.579C25.158 59.953 24.939 60.455 24.918 60.985C24.898 61.514 25.078 62.032 25.423 62.434L29.882 66.893L26.895 69.88L25.423 68.387C25.027 67.991 24.489 67.768 23.929 67.768C23.369 67.768 22.832 67.991 22.436 68.387C22.04 68.783 21.817 69.32 21.817 69.88C21.817 70.441 22.04 70.978 22.436 71.374L23.929 72.846L20.963 75.833L16.483 71.374C16.089 70.982 15.556 70.762 15 70.762C14.444 70.762 13.911 70.982 13.517 71.374C13.125 71.768 12.906 72.301 12.906 72.857C12.906 73.412 13.125 73.946 13.517 74.34L17.976 78.799L15.011 81.786L6.07098 72.846L32.848 46.069L41.788 55.009L38.801 57.975Z" fill="#FF3343"/>
<path d="M24.138 102H62C62.558 102 63.093 101.778 63.487 101.384C63.882 100.989 64.104 100.454 64.104 99.897V62.034C64.104 61.477 63.882 60.942 63.487 60.547C63.093 60.153 62.558 59.931 62 59.931H49.379C48.822 59.931 48.286 60.153 47.892 60.547C47.498 60.942 47.276 61.477 47.276 62.034V85.172H24.138C23.58 85.172 23.045 85.394 22.651 85.788C22.256 86.183 22.035 86.718 22.035 87.276V99.897C22.035 100.454 22.256 100.989 22.651 101.384C23.045 101.778 23.58 102 24.138 102ZM26.241 89.379H30.448V91.483C30.448 92.041 30.67 92.576 31.064 92.97C31.459 93.365 31.994 93.586 32.552 93.586C33.11 93.586 33.645 93.365 34.039 92.97C34.434 92.576 34.655 92.041 34.655 91.483V89.379H38.862V91.483C38.862 92.041 39.084 92.576 39.478 92.97C39.873 93.365 40.408 93.586 40.966 93.586C41.523 93.586 42.058 93.365 42.453 92.97C42.847 92.576 43.069 92.041 43.069 91.483V89.379H47.276V91.483C47.276 92.041 47.498 92.576 47.892 92.97C48.286 93.365 48.822 93.586 49.379 93.586C49.937 93.586 50.472 93.365 50.867 92.97C51.261 92.576 51.483 92.041 51.483 91.483V89.379H53.586C54.144 89.379 54.679 89.158 55.074 88.763C55.468 88.369 55.69 87.834 55.69 87.276C55.69 86.718 55.468 86.183 55.074 85.788C54.679 85.394 54.144 85.172 53.586 85.172H51.483V80.966H53.586C54.144 80.966 54.679 80.744 55.074 80.349C55.468 79.955 55.69 79.42 55.69 78.862C55.69 78.304 55.468 77.769 55.074 77.375C54.679 76.98 54.144 76.759 53.586 76.759H51.483V72.552H53.586C54.144 72.552 54.679 72.33 55.074 71.936C55.468 71.541 55.69 71.006 55.69 70.448C55.69 69.89 55.468 69.355 55.074 68.961C54.679 68.566 54.144 68.345 53.586 68.345H51.483V64.138H59.897V97.793H26.241V89.379Z" fill="#FF3343"/>
</svg>
