<svg width="125" height="118" viewBox="0 0 125 118" fill="none" xmlns="http://www.w3.org/2000/svg">
<path d="M65.562 71.6H53.312C52.5 71.6 51.721 71.921 51.147 72.493C50.573 73.065 50.25 73.841 50.25 74.65C50.25 75.459 50.573 76.235 51.147 76.807C51.721 77.379 52.5 77.7 53.312 77.7H65.562C66.375 77.7 67.154 77.379 67.728 76.807C68.302 76.235 68.625 75.459 68.625 74.65C68.625 73.841 68.302 73.065 67.728 72.493C67.154 71.921 66.375 71.6 65.562 71.6ZM77.812 41.1H74.199C73.567 39.32 72.398 37.779 70.852 36.686C69.305 35.594 67.458 35.005 65.562 35H59.438C57.542 35.005 55.695 35.594 54.148 36.686C52.602 37.779 51.433 39.32 50.801 41.1H47.188C44.751 41.1 42.414 42.064 40.691 43.78C38.968 45.496 38 47.823 38 50.25V86.85C38 89.277 38.968 91.604 40.691 93.32C42.414 95.036 44.751 96 47.188 96H77.812C80.249 96 82.586 95.036 84.309 93.32C86.032 91.604 87 89.277 87 86.85V50.25C87 47.823 86.032 45.496 84.309 43.78C82.586 42.064 80.249 41.1 77.812 41.1ZM56.375 44.15C56.375 43.341 56.698 42.565 57.272 41.993C57.846 41.421 58.625 41.1 59.438 41.1H65.562C66.375 41.1 67.154 41.421 67.728 41.993C68.302 42.565 68.625 43.341 68.625 44.15V47.2H56.375V44.15ZM80.875 86.85C80.875 87.659 80.552 88.435 79.978 89.007C79.404 89.579 78.625 89.9 77.812 89.9H47.188C46.375 89.9 45.596 89.579 45.022 89.007C44.448 88.435 44.125 87.659 44.125 86.85V50.25C44.125 49.441 44.448 48.665 45.022 48.093C45.596 47.521 46.375 47.2 47.188 47.2H50.25V50.25C50.25 51.059 50.573 51.835 51.147 52.407C51.721 52.979 52.5 53.3 53.312 53.3H71.688C72.5 53.3 73.279 52.979 73.853 52.407C74.427 51.835 74.75 51.059 74.75 50.25V47.2H77.812C78.625 47.2 79.404 47.521 79.978 48.093C80.552 48.665 80.875 49.441 80.875 50.25V86.85ZM71.688 59.4H53.312C52.5 59.4 51.721 59.721 51.147 60.293C50.573 60.865 50.25 61.641 50.25 62.45C50.25 63.259 50.573 64.035 51.147 64.607C51.721 65.179 52.5 65.5 53.312 65.5H71.688C72.5 65.5 73.279 65.179 73.853 64.607C74.427 64.035 74.75 63.259 74.75 62.45C74.75 61.641 74.427 60.865 73.853 60.293C73.279 59.721 72.5 59.4 71.688 59.4Z" fill="#ffff"/>
</svg>
