<svg width="114" height="101" viewBox="0 0 114 101" fill="none" xmlns="http://www.w3.org/2000/svg">
<path d="M69.13 58.351C68.996 58.495 68.877 58.653 68.775 58.822C68.658 58.972 68.568 59.141 68.509 59.322C68.419 59.498 68.359 59.687 68.332 59.882C68.212 60.446 68.274 61.033 68.509 61.56C68.642 61.925 68.853 62.257 69.129 62.532C69.405 62.807 69.738 63.018 70.105 63.15C70.455 63.315 70.84 63.396 71.227 63.386C71.611 63.39 71.993 63.32 72.35 63.179C72.703 63.009 73.031 62.791 73.325 62.532C73.599 62.257 73.815 61.93 73.963 61.572C74.11 61.213 74.184 60.829 74.182 60.441C74.192 60.055 74.111 59.672 73.945 59.322C73.796 58.965 73.586 58.637 73.325 58.351C73.049 58.078 72.722 57.862 72.362 57.715C72.002 57.569 71.616 57.494 71.227 57.497C70.841 57.501 70.46 57.581 70.105 57.732C69.742 57.872 69.411 58.083 69.13 58.351ZM56.957 70.599C56.84 70.75 56.75 70.919 56.691 71.1C56.58 71.272 56.5 71.461 56.455 71.659C56.366 72.037 56.366 72.43 56.455 72.808L56.632 73.338L56.898 73.868L57.252 74.309C57.833 74.861 58.606 75.168 59.409 75.163C59.798 75.166 60.183 75.091 60.543 74.945C60.903 74.798 61.231 74.582 61.507 74.309C61.768 74.023 61.978 73.695 62.127 73.338C62.311 72.892 62.382 72.407 62.334 71.928C62.287 71.448 62.121 70.987 61.853 70.586C61.584 70.184 61.221 69.855 60.795 69.626C60.369 69.398 59.893 69.277 59.409 69.274C58.627 69.285 57.878 69.59 57.311 70.128L56.957 70.599ZM69.13 70.128C68.861 70.408 68.65 70.739 68.509 71.1C68.261 71.633 68.179 72.228 68.273 72.808L68.45 73.338C68.515 73.525 68.604 73.704 68.716 73.868C68.825 74.022 68.943 74.17 69.07 74.309C69.351 74.578 69.683 74.788 70.045 74.928C70.399 75.084 70.782 75.164 71.168 75.164C71.555 75.164 71.937 75.084 72.291 74.928C72.649 74.779 72.979 74.57 73.266 74.309C73.55 74.039 73.778 73.715 73.935 73.356C74.093 72.997 74.176 72.611 74.182 72.219C74.192 71.833 74.111 71.449 73.945 71.1C73.796 70.743 73.586 70.415 73.325 70.128C73.038 69.868 72.708 69.659 72.35 69.51C71.996 69.354 71.614 69.274 71.227 69.274C70.841 69.274 70.458 69.354 70.105 69.51C69.742 69.65 69.411 69.86 69.13 70.128ZM56.691 61.56C56.832 61.921 57.042 62.252 57.311 62.532C57.878 63.07 58.627 63.375 59.409 63.386C59.893 63.383 60.369 63.262 60.795 63.034C61.221 62.805 61.584 62.476 61.853 62.074C62.121 61.673 62.287 61.212 62.334 60.733C62.382 60.253 62.311 59.768 62.127 59.322C61.978 58.965 61.768 58.637 61.507 58.351C61.231 58.078 60.903 57.862 60.543 57.715C60.183 57.569 59.798 57.494 59.409 57.497C58.627 57.508 57.878 57.813 57.311 58.351C56.901 58.765 56.624 59.29 56.513 59.862C56.403 60.433 56.465 61.024 56.691 61.56ZM69.13 46.573C68.869 46.859 68.659 47.188 68.509 47.544C68.283 48.081 68.221 48.672 68.331 49.243C68.442 49.814 68.72 50.34 69.13 50.754C69.411 51.022 69.742 51.232 70.105 51.372C70.458 51.528 70.841 51.609 71.227 51.609C71.614 51.609 71.996 51.528 72.35 51.372C72.708 51.223 73.038 51.014 73.325 50.754C73.599 50.479 73.815 50.153 73.963 49.794C74.11 49.435 74.184 49.051 74.182 48.663C74.192 48.277 74.111 47.894 73.945 47.544C73.796 47.188 73.586 46.859 73.325 46.573C72.91 46.164 72.382 45.888 71.809 45.777C71.236 45.667 70.643 45.729 70.105 45.954C69.742 46.095 69.411 46.305 69.13 46.573ZM32.8182 48.663V72.219C32.8182 73 33.1295 73.749 33.6835 74.301C34.2376 74.853 34.9891 75.163 35.7727 75.163H47.5909C48.375 75.163 49.126 74.853 49.68 74.301C50.234 73.749 50.545 73 50.545 72.219V48.663C50.545 47.882 50.234 47.134 49.68 46.581C49.126 46.029 48.375 45.719 47.5909 45.719H35.7727C34.9891 45.719 34.2376 46.029 33.6835 46.581C33.1295 47.134 32.8182 47.882 32.8182 48.663ZM44.6364 51.608V69.274H38.7273V51.608H44.6364ZM21 42.774V78.108C21 80.451 21.9338 82.697 23.5961 84.354C25.2584 86.011 27.5129 86.941 29.8636 86.941H77.136C79.487 86.941 81.742 86.011 83.404 84.354C85.066 82.697 86 80.451 86 78.108V42.774C86 40.432 85.066 38.185 83.404 36.528C81.742 34.872 79.487 33.941 77.136 33.941H29.8636C27.5129 33.941 25.2584 34.872 23.5961 36.528C21.9338 38.185 21 40.432 21 42.774ZM77.136 39.83C77.92 39.83 78.671 40.14 79.226 40.692C79.78 41.245 80.091 41.994 80.091 42.774V78.108C80.091 78.889 79.78 79.638 79.226 80.19C78.671 80.742 77.92 81.052 77.136 81.052H29.8636C29.08 81.052 28.3285 80.742 27.7745 80.19C27.2204 79.638 26.9091 78.889 26.9091 78.108V42.774C26.9091 41.994 27.2204 41.245 27.7745 40.692C28.3285 40.14 29.08 39.83 29.8636 39.83H77.136ZM56.957 47.044C56.84 47.194 56.75 47.364 56.691 47.544C56.601 47.72 56.541 47.909 56.514 48.104C56.425 48.482 56.425 48.875 56.514 49.252L56.691 49.782L56.957 50.312L57.311 50.754C57.878 51.292 58.627 51.597 59.409 51.608C59.893 51.605 60.369 51.485 60.795 51.256C61.221 51.027 61.584 50.698 61.853 50.297C62.121 49.895 62.287 49.435 62.334 48.955C62.382 48.475 62.311 47.991 62.127 47.544C61.978 47.188 61.768 46.859 61.507 46.573C61.231 46.3 60.903 46.084 60.543 45.938C60.183 45.791 59.798 45.717 59.409 45.719C58.627 45.73 57.878 46.035 57.311 46.573L56.957 47.044Z" fill="#FF3343"/>
<path d="M33.0922 17.004C32.935 17.164 32.8109 17.353 32.727 17.561C32.6431 17.768 32.601 17.99 32.6031 18.214L32.7415 28.419C32.7454 28.643 32.7935 28.864 32.8831 29.069C32.9726 29.275 33.1018 29.46 33.2632 29.615C33.4228 29.773 33.6119 29.897 33.8196 29.981C34.0272 30.065 34.2494 30.107 34.4734 30.105L41.2844 30.012L67.59 29.655C67.814 29.652 68.035 29.603 68.24 29.514C68.445 29.424 68.631 29.295 68.786 29.134L73.819 23.962C74.134 23.639 74.308 23.204 74.302 22.752C74.295 22.301 74.11 21.87 73.787 21.556L68.615 16.523C68.454 16.347 68.257 16.208 68.038 16.113C67.819 16.019 67.583 15.971 67.344 15.974L41.1119 16.402L34.3481 16.422C34.1217 16.431 33.8986 16.479 33.688 16.563C33.5816 16.649 33.486 16.747 33.4031 16.856C33.3421 16.907 33.2865 16.964 33.2369 17.026L33.0922 17.004ZM66.741 19.449L70.193 22.808L66.834 26.26L42.935 26.584L42.8426 19.773L66.741 19.449ZM39.4492 19.819L39.5415 26.63L36.1358 26.664L36.0438 19.877L39.4492 19.819Z" fill="#FF3343"/>
</svg>
